<?xml version="1.0" encoding="UTF-8"?><svg id="_レイヤー_2" xmlns="http://www.w3.org/2000/svg" viewBox="0 0 132.03 49.96"><defs><style>.cls-1{fill:#002352;}.cls-2{fill:none;stroke:#002352;stroke-linecap:round;stroke-miterlimit:10;stroke-width:2px;}</style></defs><g id="_レイアウト"><line class="cls-2" x1="22.63" y1="48.96" x2="1" y2="25.93"/><line class="cls-2" x1="120.59" y1="30.82" x2="131.03" y2="1"/><path class="cls-1" d="m38.81,29.07l-7.22-9.82,2.93-.54,2.86,4.23c.78,1.2,1.5,2.31,2.34,3.52l.09-.02c.32-1.43.66-2.74.94-4.13l1.18-4.98,2.86-.53-3.24,11.76,1.22,6.58-2.74.51-1.22-6.58Z"/><path class="cls-1" d="m47,16.4l10.27-1.9.42,2.29-7.53,1.4.9,4.84,6.37-1.18.43,2.31-6.37,1.18,1.04,5.62,7.79-1.44.43,2.31-10.53,1.95-3.22-17.37Z"/><path class="cls-1" d="m72.03,24.59l-6.04,1.12-.57,5.23-2.78.52,2.54-18.44,3.16-.59,8.98,16.3-2.9.54-2.38-4.69Zm-1.06-2.02l-1.12-2.21c-.94-1.78-1.82-3.62-2.72-5.48l-.09.02c-.13,2.07-.32,4.09-.53,6.08l-.27,2.47,4.74-.88Z"/><path class="cls-1" d="m89.18,26.54l-5.24-6.28-2.81.52,1.3,7.01-2.74.51-3.22-17.37,5.69-1.05c3.59-.67,6.51.11,7.21,3.86.5,2.69-.64,4.56-2.71,5.65l5.61,6.58-3.09.57Zm-8.46-7.95l2.62-.49c2.52-.47,3.7-1.76,3.31-3.86-.39-2.1-1.89-2.58-4.42-2.11l-2.62.49,1.11,5.97Z"/><path class="cls-1" d="m96.06,10.23l-.65-3.1,3.47-.64.51,3.13.9,8.82-1.94.36-2.29-8.56Zm1.85,12.74c-.23-1.23.58-2.26,1.76-2.47,1.18-.22,2.31.45,2.53,1.68s-.59,2.23-1.77,2.45-2.3-.43-2.53-1.66Z"/></g></svg>
